<svg width="18" height="18" viewBox="0 0 18 18" fill="none" xmlns="http://www.w3.org/2000/svg">
<path fill-rule="evenodd" clip-rule="evenodd" d="M6.46879 2.92493C6.60173 2.92486 6.73338 2.95106 6.85617 3.00203C6.97896 3.053 7.09047 3.12773 7.18429 3.22193L12.2468 8.28443C12.3408 8.37845 12.4155 8.49008 12.4664 8.61295C12.5173 8.73581 12.5435 8.8675 12.5435 9.00049C12.5435 9.13348 12.5173 9.26517 12.4664 9.38803C12.4155 9.5109 12.3408 9.62253 12.2468 9.71655L7.18429 14.7791C7.091 14.8763 6.97923 14.954 6.85552 15.0076C6.73182 15.0611 6.59867 15.0894 6.46389 15.0908C6.32911 15.0922 6.19541 15.0666 6.07062 15.0157C5.94584 14.9647 5.83249 14.8893 5.73722 14.794C5.64194 14.6986 5.56667 14.5852 5.5158 14.4604C5.46494 14.3356 5.43951 14.2019 5.441 14.0671C5.4425 13.9323 5.47089 13.7992 5.52452 13.6755C5.57814 13.5518 5.65592 13.4401 5.75329 13.3469L10.0992 8.99993L5.75329 4.65405C5.61148 4.51251 5.51485 4.33208 5.47564 4.1356C5.43642 3.93912 5.45638 3.73543 5.53299 3.55029C5.60959 3.36516 5.7394 3.20692 5.90598 3.0956C6.07257 2.98428 6.26843 2.92488 6.46879 2.92493Z" fill="#BEC1C4"/>
</svg>
