<svg width="26" height="26" viewBox="0 0 26 26" fill="none" xmlns="http://www.w3.org/2000/svg">
<g clip-path="url(#clip0_2645_50721)">
<path d="M21.4654 19.171C17.0565 19.171 8.26915 19.171 3.77918 19.171C2.73523 19.171 1.95481 18.0916 2.21833 16.9767C2.5832 15.426 3.93121 15.1667 3.93121 12.0509C4.87887 4.02877 8.55294 1.52026 12.7236 1.52026C16.8944 1.52026 20.5532 3.90208 21.4654 12.0509C21.4097 14.6199 22.7273 15.35 23.0313 16.9868C23.2391 18.1119 22.5093 19.1761 21.4654 19.1761V19.171Z" fill="#BEC1C4"/>
<path d="M8.25824 20.5834C7.79682 20.5834 7.45577 21.0515 7.62964 21.4795C8.45217 23.4923 10.4316 24.9167 12.7454 24.9167C15.0592 24.9167 17.0386 23.499 17.8611 21.4795C18.035 21.0515 17.6939 20.5834 17.2325 20.5834H8.25824Z" fill="#BEC1C4"/>
</g>
<defs>
<clipPath id="clip0_2645_50721">
<rect width="20.8991" height="23.8333" fill="white" transform="translate(2.16675 1.08337)"/>
</clipPath>
</defs>
</svg>
