<svg width="28" height="28" viewBox="0 0 28 28" fill="none" xmlns="http://www.w3.org/2000/svg">
<path fill-rule="evenodd" clip-rule="evenodd" d="M20.0666 11.9003L13.5333 18.4337C13.2999 18.667 13.0666 18.7837 12.7166 18.7837C12.3666 18.7837 12.1333 18.667 11.8999 18.4337L7.93325 14.467C7.46659 14.0003 7.46659 13.3003 7.93325 12.8337C8.39992 12.367 9.09992 12.367 9.56658 12.8337L12.7166 15.9837L18.4333 10.267C18.8999 9.80033 19.5999 9.80033 20.0666 10.267C20.5333 10.7337 20.5333 11.4337 20.0666 11.9003Z" fill="#DCDCDD"/>
<path d="M14.0001 3.50033C19.8334 3.50033 24.5001 8.16699 24.5001 14.0003C24.5001 19.8337 19.8334 24.5003 14.0001 24.5003C8.16675 24.5003 3.50008 19.8337 3.50008 14.0003C3.50008 8.16699 8.16675 3.50033 14.0001 3.50033ZM14.0001 1.16699C6.88341 1.16699 1.16675 6.88366 1.16675 14.0003C1.16675 21.117 6.88341 26.8337 14.0001 26.8337C21.1167 26.8337 26.8334 21.117 26.8334 14.0003C26.8334 6.88366 21.1167 1.16699 14.0001 1.16699Z" fill="#DCDCDD"/>
</svg>
