<svg width="24" height="42" viewBox="0 0 24 42" fill="none" xmlns="http://www.w3.org/2000/svg">
<path d="M16.1504 39.9082H8.80859V36.832H16.1504V39.9082ZM10.0918 38.9238H14.8789V37.8105H10.0918V38.9238ZM16.7949 31.2422H8.14062V30.2578H16.7949V31.2422ZM12.4941 31.5645C13.6348 31.5684 14.5039 31.6973 15.1016 31.9512C15.7031 32.2012 16.0039 32.5742 16.0039 33.0703C16.0039 33.5664 15.7031 33.9434 15.1016 34.2012C14.5039 34.4551 13.6348 34.582 12.4941 34.582C11.3574 34.582 10.4844 34.4551 9.875 34.2012C9.26953 33.9434 8.9668 33.5664 8.9668 33.0703C8.9668 32.5742 9.26953 32.2012 9.875 31.9512C10.4844 31.6973 11.3574 31.5684 12.4941 31.5645ZM12.4941 32.4492C12.002 32.4492 11.6016 32.4727 11.293 32.5195C10.9844 32.5625 10.752 32.6289 10.5957 32.7188C10.4395 32.8086 10.3613 32.9258 10.3613 33.0703C10.3613 33.2031 10.4395 33.3164 10.5957 33.4102C10.7559 33.5039 10.9922 33.5742 11.3047 33.6211C11.6172 33.668 12.0137 33.6934 12.4941 33.6973C12.9746 33.6934 13.3691 33.668 13.6777 33.6211C13.9902 33.5742 14.2246 33.5039 14.3809 33.4102C14.5371 33.3164 14.6152 33.2031 14.6152 33.0703C14.6152 32.9258 14.5371 32.8086 14.3809 32.7188C14.2246 32.6289 13.9922 32.5625 13.6836 32.5195C13.3789 32.4727 12.9824 32.4492 12.4941 32.4492ZM13.1387 30.9434H11.8379V29.3379H13.1387V30.9434ZM17.3164 36.2051H7.67188V35.1797H17.3164V36.2051ZM13.1387 35.748H11.8379V34.248H13.1387V35.748Z" fill="#2C2C2E"/>
<path fill-rule="evenodd" clip-rule="evenodd" d="M21.069 8.20395L12.622 1.48695C12.4453 1.3461 12.226 1.26941 12 1.26941C11.7741 1.26941 11.5548 1.3461 11.378 1.48695L2.93005 8.20395C2.6946 8.39123 2.50443 8.62921 2.37371 8.90017C2.24299 9.17114 2.17508 9.4681 2.17505 9.76895V19.1869C2.17505 19.8235 2.42791 20.4339 2.87799 20.884C3.32808 21.3341 3.93853 21.5869 4.57505 21.5869H10V16.8349C10 16.5697 10.1054 16.3154 10.2929 16.1278C10.4805 15.9403 10.7348 15.8349 11 15.8349H13C13.2653 15.8349 13.5196 15.9403 13.7072 16.1278C13.8947 16.3154 14 16.5697 14 16.8349V21.5869H19.424C20.0606 21.5869 20.671 21.3341 21.1211 20.884C21.5712 20.4339 21.824 19.8235 21.824 19.1869V9.76995C21.824 9.4691 21.7561 9.17214 21.6254 8.90117C21.4947 8.63021 21.3045 8.39223 21.069 8.20495" fill="#2C2C2E"/>
</svg>
