<svg width="25" height="25" viewBox="0 0 25 25" fill="none" xmlns="http://www.w3.org/2000/svg">
<path d="M13.6328 20.7255C13.2743 21.0878 12.6892 21.0878 12.3297 20.7265L5.10549 13.4426C4.13162 12.3532 3.65019 10.9777 3.72997 9.54713C3.80975 8.11659 4.4434 6.80434 5.51081 5.85065C6.57821 4.89604 7.95557 4.4201 9.38428 4.4953C10.5085 4.55857 11.5613 4.96298 12.4233 5.65257C12.7451 5.91025 13.1991 5.92493 13.5283 5.67458C14.3683 5.03542 15.3788 4.66036 16.4563 4.598C17.8896 4.51731 19.2624 4.99507 20.3316 5.94785C21.4008 6.90063 22.0354 8.21288 22.1179 9.64251C22.2005 11.0721 21.7209 12.4486 20.769 13.5178L13.6328 20.7255Z" fill="#F54811" stroke="#F54811" stroke-width="1.02254" stroke-miterlimit="10"/>
</svg>
