<svg width="32" height="42" viewBox="0 0 32 42" fill="none" xmlns="http://www.w3.org/2000/svg">
<path d="M8.92188 32.9121H6.17969V31.8633H8.92188V32.9121ZM3.73633 29.918C4.25977 29.9141 4.73047 30.0176 5.14844 30.2285C5.57031 30.4395 5.90234 30.7363 6.14453 31.1191C6.39062 31.498 6.51367 31.9258 6.51367 32.4023C6.51367 32.8828 6.39062 33.3145 6.14453 33.6973C5.90234 34.0801 5.57031 34.3789 5.14844 34.5938C4.73047 34.8047 4.25977 34.9102 3.73633 34.9102C3.20117 34.9102 2.7207 34.8047 2.29492 34.5938C1.86914 34.3789 1.53711 34.0801 1.29883 33.6973C1.06055 33.3145 0.941406 32.8828 0.941406 32.4023C0.941406 31.9258 1.06055 31.498 1.29883 31.1191C1.53711 30.7363 1.86914 30.4395 2.29492 30.2285C2.72461 30.0176 3.20508 29.9141 3.73633 29.918ZM3.73633 31.0137C3.43555 31.0059 3.16602 31.0586 2.92773 31.1719C2.69336 31.2852 2.50977 31.4473 2.37695 31.6582C2.24414 31.8691 2.17773 32.1172 2.17773 32.4023C2.17773 32.6797 2.24414 32.9258 2.37695 33.1406C2.50977 33.3555 2.69336 33.5234 2.92773 33.6445C3.16602 33.7617 3.43555 33.8203 3.73633 33.8203C4.0332 33.8203 4.29688 33.7617 4.52734 33.6445C4.76172 33.5234 4.94336 33.3555 5.07227 33.1406C5.20117 32.9258 5.26562 32.6797 5.26562 32.4023C5.26562 32.1211 5.20117 31.875 5.07227 31.6641C4.94336 31.4492 4.76172 31.2852 4.52734 31.1719C4.29688 31.0586 4.0332 31.0059 3.73633 31.0137ZM9.66602 35.1387H8.36523V29.4492H9.66602V35.1387ZM3.97656 36.75H8.36523V35.625H9.66602V39.9082H2.6875V35.625H3.97656V36.75ZM8.36523 38.8535V37.7637H3.97656V38.8535H8.36523ZM20.8516 38.8125H11.1719V37.7402H20.8516V38.8125ZM16.627 38.1973H15.3438V35.6484H16.627V38.1973ZM19.6973 33.5742H13.6152V35.4961H12.3145V32.5488H18.4141V31.2246H12.2969V30.1699H19.6973V33.5742ZM19.9492 36.0059H12.3145V34.9453H19.9492V36.0059ZM30.1387 35.4668H22.709V34.418H30.1387V35.4668ZM31.2227 38.7012H21.543V37.623H31.2227V38.7012ZM30.0508 31.4297H24.0039V34.8633H22.709V30.3691H30.0508V31.4297Z" fill="#A4A4A4"/>
<path fill-rule="evenodd" clip-rule="evenodd" d="M20.492 13H16.992V16.5C16.992 16.7652 16.8866 17.0196 16.6991 17.2071C16.5116 17.3946 16.2572 17.5 15.992 17.5C15.7268 17.5 15.4724 17.3946 15.2849 17.2071C15.0974 17.0196 14.992 16.7652 14.992 16.5V13H11.492C11.2268 13 10.9724 12.8946 10.7849 12.7071C10.5974 12.5196 10.492 12.2652 10.492 12C10.492 11.7348 10.5974 11.4804 10.7849 11.2929C10.9724 11.1054 11.2268 11 11.492 11H14.992V7.5C14.992 7.23478 15.0974 6.98043 15.2849 6.79289C15.4724 6.60536 15.7268 6.5 15.992 6.5C16.2572 6.5 16.5116 6.60536 16.6991 6.79289C16.8866 6.98043 16.992 7.23478 16.992 7.5V11H20.492C20.7572 11 21.0116 11.1054 21.1991 11.2929C21.3866 11.4804 21.492 11.7348 21.492 12C21.492 12.2652 21.3866 12.5196 21.1991 12.7071C21.0116 12.8946 20.7572 13 20.492 13ZM16 1C9.925 1 5 5.925 5 12C5 18.075 9.925 23 16 23C22.075 23 27 18.075 27 12C27 5.925 22.075 1 16 1Z" fill="#BEBEBE"/>
</svg>
