<svg width="32" height="41" viewBox="0 0 32 41" fill="none" xmlns="http://www.w3.org/2000/svg">
<path d="M10.4805 37.7656H0.800781V36.6758H10.4805V37.7656ZM9.63086 30.4824H1.58594V29.4277H9.63086V30.4824ZM9.58984 34.8887H1.62695V33.8457H9.58984V34.8887ZM4.42188 33.957H3.11523V30.377H4.42188V33.957ZM8.08398 33.957H6.80078V30.377H8.08398V33.957ZM20.8516 37.8125H11.1719V36.7402H20.8516V37.8125ZM16.627 37.1973H15.3438V34.6484H16.627V37.1973ZM19.6973 32.5742H13.6152V34.4961H12.3145V31.5488H18.4141V30.2246H12.2969V29.1699H19.6973V32.5742ZM19.9492 35.0059H12.3145V33.9453H19.9492V35.0059ZM30.373 33.9043H29.0664V28.4492H30.373V33.9043ZM30.373 37.0859H24.584V38.4922H23.2949V36.1426H29.084V35.375H23.2656V34.3555H30.373V37.0859ZM30.707 38.9492H23.2949V37.9121H30.707V38.9492ZM27.7422 30.1367H22V29.1289H27.7422V30.1367ZM21.7129 32.6035C22.9082 32.6035 24.0547 32.582 25.1523 32.5391C26.25 32.4922 27.2637 32.4141 28.1934 32.3047L28.252 33.248C27.2949 33.3965 26.2695 33.5 25.1758 33.5586C24.082 33.6133 22.9766 33.6406 21.8594 33.6406L21.7129 32.6035ZM24.1738 33.1074H22.9199V29.5859H24.1738V33.1074ZM26.8047 33.1074H25.5508V29.5859H26.8047V33.1074Z" fill="#A4A4A4"/>
<path fill-rule="evenodd" clip-rule="evenodd" d="M20.887 6.64401C20.8871 7.28683 20.7606 7.92337 20.5146 8.51729C20.2687 9.1112 19.9082 9.65086 19.4537 10.1054C18.9992 10.56 18.4596 10.9207 17.8657 11.1667C17.2719 11.4128 16.6354 11.5394 15.9925 11.5395C14.6943 11.5396 13.4492 11.024 12.5311 10.1062C11.613 9.18826 11.0972 7.94325 11.097 6.64501C11.097 6.00219 11.2235 5.36565 11.4695 4.77174C11.7154 4.17782 12.0759 3.63817 12.5304 3.18358C13.4483 2.26549 14.6933 1.74964 15.9915 1.74951C17.2898 1.74938 18.5349 2.26497 19.453 3.18287C20.3711 4.10077 20.8869 5.34578 20.887 6.64401ZM15.992 13.037C8.94305 13.037 6.20105 17.523 6.20105 19.61C6.20105 21.696 12.038 22.252 15.992 22.252C19.946 22.252 25.7831 21.696 25.7831 19.61C25.7831 17.523 23.041 13.037 15.992 13.037Z" fill="#BEBEBE"/>
</svg>
